# xmcd CD database file
#
# Track frame offsets:
#       150
#       22350
#       36262
#       54000
#       69500
#       84772
#       101100
#       119962
#       139500
#       154875
#
# Disc length: 2270 seconds
#
# Revision: 1
# Processed by: cddbd v1.4PL0 Copyright (c) Steve Scherf et al.
# Submitted via: jack 2.99.7
#
DISCID=8708dc0a
DTITLE=Buddy Owens, Stan Endicott - Sacrifice Of Praise
DYEAR=1900
DGENRE=
TTITLE0=Crown Him with many Crowns - All Hail King Jesus - We Bring the Sacrifice of Praise
TTITLE1=He is the King of Glory
TTITLE2=Hosanna in the Highest - We cry Hosanna
TTITLE3=We are Free
TTITLE4=Like a River
TTITLE5=I Will Rejoice - Good Good Lord
TTITLE6=Awesome Power
TTITLE7=Now unto the King
TTITLE8=Glory
TTITLE9=Soon and very Soon
EXTD=
EXTT0=
EXTT1=
EXTT2=
EXTT3=
EXTT4=
EXTT5=
EXTT6=
EXTT7=
EXTT8=
EXTT9=
PLAYORDER=
